<?xml version="1.0" encoding="utf-8"?>
<!-- Generator: Adobe Illustrator 26.0.2, SVG Export Plug-In . SVG Version: 6.00 Build 0)  -->
<svg version="1.1" xmlns="http://www.w3.org/2000/svg" xmlns:xlink="http://www.w3.org/1999/xlink" x="0px" y="0px"
	 viewBox="0 0 64 64" style="enable-background:new 0 0 64 64;" xml:space="preserve">
<style type="text/css">
	.st0{fill:#EABE03;}
	.st1{fill:#FFA963;}
	.st2{fill:#F49853;}
	.st3{fill:#EF4E0F;}
	.st4{fill:#F40B1C;}
	.st5{fill:#A02E14;}
	.st6{fill:#93210F;}
	.st7{fill:#759905;}
	.st8{fill:#77A505;}
	.st9{fill:#91BC08;}
	.st10{fill:#F9C900;}
	.st11{fill:#F9B480;}
	.st12{fill:#8AB504;}
	.st13{fill:#F7C800;}
	.st14{fill:#E8BC03;}
	.st15{fill:#C6632C;}
	.st16{fill:#EAD5C5;}
	.st17{fill:#DDC8BA;}
	.st18{fill:#CE7436;}
	.st19{fill:#D37E44;}
	.st20{fill:#C66D32;}
	.st21{fill:#BA5725;}
	.st22{fill:#DB7E40;}
	.st23{fill:#C97135;}
	.st24{fill:#EF8E4B;}
	.st25{fill:#E58645;}
	.st26{fill:#F49751;}
	.st27{fill:#E88C4D;}
	.st28{fill:#F49E5D;}
	.st29{fill:#5B9B10;}
	.st30{fill:#F9E028;}
	.st31{fill:#E8CC23;}
	.st32{fill:#F4CB00;}
	.st33{fill:#E80A25;}
	.st34{fill:#D30B23;}
	.st35{fill:#ED0723;}
	.st36{fill:#F7612D;}
	.st37{fill:#87AF09;}
	.st38{fill:#9CBF08;}
	.st39{fill:#EDB106;}
	.st40{fill:#912614;}
	.st41{fill:#89B209;}
	.st42{fill:#F7B03F;}
	.st43{fill:#FCBA59;}
	.st44{fill:#EDA53B;}
	.st45{fill:#F7BB63;}
	.st46{fill:#F9C178;}
	.st47{fill:#FCBD72;}
	.st48{fill:#FCC281;}
	.st49{fill:#EFAE67;}
	.st50{fill:#F9E955;}
	.st51{fill:#31AF38;}
	.st52{fill:#2BA32D;}
	.st53{fill:#B41D1F;}
	.st54{fill:#A31920;}
	.st55{fill:#D3983D;}
	.st56{fill:#C98935;}
	.st57{fill:#F78D37;}
	.st58{fill:#E27829;}
	.st59{fill:#EF8333;}
	.st60{fill:#E8E8E8;}
	.st61{fill:#E87D34;}
	.st62{fill:#F7B27F;}
	.st63{fill:#EDA677;}
	.st64{opacity:0.1;}
	.st65{fill:#FCB47E;}
	.st66{fill:#FCA15E;}
	.st67{fill:#E88949;}
	.st68{fill:#9EC10C;}
	.st69{fill:#E83B05;}
	.st70{fill:#E20E28;}
	.st71{fill:#D6AE05;}
	.st72{fill:#EDC107;}
	.st73{fill:#E5BA05;}
	.st74{fill:#FFD527;}
	.st75{fill:#932412;}
	.st76{fill:#F49C5B;}
	.st77{fill:#F28F4C;}
	.st78{fill:#FCC683;}
	.st79{fill:#FCD59D;}
	.st80{fill:#599306;}
	.st81{fill:#F7BE7F;}
	.st82{fill:#DDB40A;}
	.st83{fill:#F9E8DC;}
	.st84{fill:#CE452E;}
	.st85{fill:#BF3C2B;}
	.st86{fill:#C6A20C;}
	.st87{fill:#F7C4BF;}
	.st88{fill:#DD8080;}
	.st89{fill:#E59491;}
	.st90{fill:#F7F6F0;}
	.st91{fill:#EAE9E5;}
	.st92{fill:#FFFFFF;}
	.st93{fill:#EAEAE8;}
	.st94{fill:#F9D84E;}
	.st95{fill:#F7F0EB;}
	.st96{fill:#EAE4E1;}
	.st97{fill:#D37231;}
	.st98{fill:#E28647;}
	.st99{fill:#DBCCC3;}
	.st100{fill:#CEC2BC;}
	.st101{fill:#DDD1CC;}
	.st102{fill:#F9DAC5;}
	.st103{fill:#EADAD0;}
	.st104{fill:#EDCCB7;}
	.st105{fill:#EAA239;}
	.st106{fill:#CFE589;}
	.st107{fill:#AF5F33;}
	.st108{fill:#D8D8D8;}
	.st109{fill:#F4F2F2;}
	.st110{fill:#EAEAEA;}
	.st111{fill:#E5E5E5;}
	.st112{fill:#8E4424;}
	.st113{opacity:0.25;}
	.st114{fill:#F3A1B1;}
	.st115{fill:#F18896;}
	.st116{fill:#E0DCDC;}
	.st117{fill:#872738;}
	.st118{fill:#D8B10F;}
	.st119{fill:#E0B80E;}
	.st120{fill:#F2C611;}
	.st121{fill:#F7CE21;}
	.st122{fill:#B7632A;}
	.st123{fill:#C46C30;}
	.st124{fill:#D30F30;}
	.st125{fill:#EAE7E5;}
	.st126{fill:#F4F1EF;}
	.st127{fill:#EDE6E2;}
	.st128{fill:#DDD7D4;}
	.st129{fill:#F9F0EA;}
	.st130{fill:#DBDAD9;}
	.st131{fill:#DB8245;}
	.st132{fill:#EF924D;}
	.st133{fill:#EF9856;}
	.st134{fill:#E2B807;}
	.st135{fill:#F1A3B0;}
	.st136{fill:#F2B865;}
	.st137{fill:#F9C580;}
	.st138{fill:#872E39;}
	.st139{opacity:0.44;}
	.st140{fill:#F9B2C1;}
	.st141{fill:#D60F27;}
	.st142{fill:#E25F52;}
	.st143{fill:#C1432F;}
	.st144{fill:#E2AD05;}
	.st145{fill:#F4F4F4;}
	.st146{fill:#E0DEDE;}
</style>
<g id="Layer_1">
</g>
<g id="Layer_2">
</g>
<g id="Layer_3">
</g>
<g id="Layer_4">
	<g>
		<path class="st26" d="M31.8857422,62.2099609c-14.0957031,0-25.5634766-4.7587891-25.5634766-10.6074219
			c0-1.0253906,0.3632812-2.0527344,1.0800781-3.0537109l0.4951172-0.690918l0.5917969,0.609375
			c3.8134766,3.9199219,12.9980469,6.4526367,23.4003906,6.4526367c2.6835938,0,5.3271484-0.1738281,7.8554688-0.5175781
			l0.6708984-0.0913086l0.1220703,0.6660156c0.2490234,1.3374023,0.6416016,2.2626953,1.1669922,2.7495117
			c0.3271484,0.3017578,0.6992188,0.4487305,1.1386719,0.4487305c0.1230469,0,0.2490234-0.0112305,0.3789062-0.0332031
			c0.7060547-0.1196289,1.2705078-0.4716797,1.6767578-1.0463867c0.5078125-0.71875,0.7998047-1.8520508,0.8691406-3.3686523
			l0.0244141-0.5097656l0.4902344-0.1401367c4.0439453-1.1557617,7.1494141-2.7587891,8.9814453-4.6362305l0.5908203-0.6035156
			l0.4931641,0.6835938c0.7304688,1.0107422,1.1015625,2.0478516,1.1015625,3.081543
			C57.4501953,57.4511719,45.9814453,62.2099609,31.8857422,62.2099609z"/>
		<path class="st27" d="M57.4500122,51.5999756c0,5.8500366-11.4700317,10.6099854-25.5599976,10.6099854
			c-14.1000366,0-25.5700073-4.7599487-25.5700073-10.6099854c0-0.1499634,0.0100098-0.3099976,0.0299683-0.4599609
			C7.5499878,56.5199585,18.5,60.7600098,31.7999878,60.7600098c13.6799927,0,24.8900146-4.4800415,25.5400391-10.0900269
			C57.4199829,50.9799805,57.4500122,51.289978,57.4500122,51.5999756z"/>
		<path class="st1" d="M45.7871094,52.722168c-0.0205078-1.4887695-0.2089844-3.3022461-0.5927734-5.7075195L45.09375,46.3833008
			l0.6171875-0.1665039c4.2314453-1.1386719,7.4902344-2.746582,9.4228516-4.6499023l0.5546875-0.5473633l0.4941406,0.6044922
			c0.8759766,1.0756836,1.2675781,2.0366211,1.2675781,3.1162109c0,3.4902344-3.9199219,6.644043-10.7529297,8.6538086
			l-0.8974609,0.2636719L45.7871094,52.722168z"/>
		<path class="st1" d="M31.8896484,55.3398438c-14.3378906,0-25.5693359-4.65625-25.5693359-10.5996094
			c0-1.1796875,0.3583984-2.1630859,1.1621094-3.1879883l0.4960938-0.6342773l0.5673828,0.5727539
			c1.96875,1.9892578,5.3720703,3.6557617,9.8408203,4.8193359l0.5585938,0.1455078l-0.0283203,0.5771484
			c-0.1210938,2.3759766,0.1503906,3.9306641,0.828125,4.7539062c0.3554688,0.4316406,0.8193359,0.6508789,1.4169922,0.6704102
			c0.5917969-0.0004883,1.0205078-0.1630859,1.3496094-0.5126953c0.59375-0.6303711,0.8925781-1.8847656,0.9121094-3.8349609
			l0.0087891-0.8022461l0.7949219,0.1054688c2.4951172,0.3300781,5.0732422,0.4975586,7.6621094,0.4975586
			c2.5458984,0,5.1074219-0.1635742,7.6132812-0.4858398L40.34375,47.315918l-0.0400391,0.8476562
			c-0.1210938,2.4150391-0.0898438,4.3349609,0.0927734,5.8691406l0.0820312,0.6943359l-0.6914062,0.09375
			C37.2412109,55.1650391,34.5849609,55.3398438,31.8896484,55.3398438z"/>
		<path class="st28" d="M57.4500122,44.7402344c0,5.8500366-11.4700317,10.6099854-25.5599976,10.6099854
			c-14.1000366,0-25.5700073-4.7599487-25.5700073-10.6099854c0-0.1499634,0.0100098-0.3099976,0.0299683-0.4599609
			C7.5499878,49.6602173,18.5,53.9002686,31.7999878,53.9002686c13.6799927,0,24.8900146-4.4800415,25.5400391-10.0900269
			C57.4199829,44.1202393,57.4500122,44.4302368,57.4500122,44.7402344z"/>
		<path class="st26" d="M31.6865234,48.3222656c-2.7001953,0-5.3408203-0.1723633-7.8486328-0.5112305l-0.5957031-0.0810547
			l-0.0195312-0.6005859c-0.0410156-1.3491211-0.1796875-2.8203125-0.3134766-4.2431641l-0.015625-0.1708984
			c-0.0634766-0.6816406-0.1279297-1.3696289-0.1787109-2.0449219l-0.0664062-0.8808594l0.8740234,0.1235352
			c2.6591797,0.3764648,5.4101562,0.5668945,8.1757812,0.5668945c0.5585938,0,1.1054688-0.0146484,1.6523438-0.0302734
			l0.734375-0.0214844l-0.0039062,0.734375c-0.0058594,1.2167969,0.1748047,2.0097656,0.5517578,2.425293
			c0.2148438,0.2368164,0.5166016,0.3579102,0.8994141,0.359375c0.3574219-0.0024414,0.6308594-0.1196289,0.8349609-0.3583984
			c0.3671875-0.4301758,0.515625-1.3183594,0.4414062-2.6396484l-0.0400391-0.6835938l0.6826172-0.0634766
			c0.7636719-0.0708008,1.578125-0.1669922,2.4482422-0.2875977l0.8857422-0.1220703l-0.1767578,1.9458008
			c-0.1445312,1.5727539-0.3232422,3.5302734-0.4414062,5.4194336l-0.0351562,0.5839844l-0.5800781,0.0766602
			C37.0107422,48.152832,34.3652344,48.3222656,31.6865234,48.3222656z"/>
		<path class="st26" d="M18.0947266,46.6674805c-7.3720703-1.9589844-11.7744141-5.3037109-11.7744141-8.9472656
			c0-1.2856445,0.4257812-2.3535156,1.3818359-3.4619141l0.4902344-0.5678711l0.5400391,0.5195312
			c0.9892578,0.9516602,2.3007812,1.8271484,3.8984375,2.6010742l0.4921875,0.2397461l-0.1054688,0.5371094
			c-0.5683594,2.8725586-0.8349609,4.7939453,0.5664062,5.3071289c0.0839844,0.0146484,0.2412109,0.0341797,0.3857422,0.0341797
			c0.2949219,0,0.5253906-0.0795898,0.7246094-0.2514648c0.7255859-0.6293945,0.7246094-2.4194336,0.6591797-3.7114258
			l-0.0498047-1.0317383l0.9814453,0.3222656c0.9199219,0.3017578,1.9072266,0.5771484,3.0185547,0.8417969l0.640625,0.1518555
			l-0.2167969,1.3603516c-0.2753906,1.703125-0.5869141,3.6328125-0.7431641,5.4316406l-0.0722656,0.8422852L18.0947266,46.6674805z
			"/>
		<path class="st26" d="M44.7041016,44.1191406c-0.2246094-1.2841797-0.5009766-2.8657227-0.6796875-4.2695312l-0.0800781-0.6328125
			l0.6201172-0.1474609c4.6298828-1.1030273,8.2207031-2.7563477,10.3847656-4.78125l0.5380859-0.5039062l0.484375,0.5571289
			c1.0361328,1.1958008,1.4785156,2.2060547,1.4785156,3.3789062c0,3.5927734-4.3105469,6.9106445-11.5302734,8.875
			l-0.7558594,0.2060547L44.7041016,44.1191406z"/>
		<path class="st27" d="M57.4500122,37.7202148c0,5.8500366-11.4700317,10.6099854-25.5599976,10.6099854
			c-14.1000366,0-25.5700073-4.7599487-25.5700073-10.6099854c0-0.1499634,0.0100098-0.3099976,0.0299683-0.4599609
			C7.5499878,42.6401978,18.5,46.880249,31.7999878,46.880249c13.6799927,0,24.8900146-4.4800415,25.5400391-10.0900269
			C57.4199829,37.1002197,57.4500122,37.4102173,57.4500122,37.7202148z"/>
		<path class="st1" d="M31.8261719,41.0913086c-2.875,0-5.7158203-0.2011719-8.4433594-0.5981445l-0.5751953-0.0834961
			l-0.0322266-0.5805664c-0.1425781-2.6030273,0.0644531-4.0092773,0.6904297-4.7021484
			c0.2763672-0.3081055,0.6367188-0.4663086,1.0693359-0.4697266c2.5244141,0,3.0361328,0.519043,3.5283203,1.3110352
			c0.2832031,0.4541016,0.5507812,0.8833008,1.6044922,1.1914062c0.2451172,0.0712891,0.4736328,0.1074219,0.6796875,0.1074219
			c0.8974609,0,1.3486328-0.7211914,1.7460938-1.3574219c0.4570312-0.7290039,0.8164062-1.3041992,1.5810547-1.3041992
			l0.3925781,0.0288086l0.1845703,0.1938477c0.4179688,0.4365234,0.40625,1.3061523,0.1591797,3.6967773
			c-0.0654297,0.6298828-0.1279297,1.2607422-0.1689453,1.8720703l-0.0419922,0.6430664l-0.6445312,0.0195312
			C32.984375,41.0771484,32.4101562,41.0913086,31.8261719,41.0913086z"/>
		<path class="st1" d="M19.1279297,39.4882812c-1.2470703-0.2993164-2.3476562-0.6147461-3.3642578-0.9643555l-0.4384766-0.1513672
			l-0.1230469-1.4863281c-0.2714844-3.1088867-0.1796875-4.0112305,0.4462891-4.3876953l0.2373047-0.1420898l0.2695312,0.0541992
			c1.3554688,0.2744141,1.6992188,0.8999023,1.9765625,1.4023438c0.2841797,0.519043,0.4570312,0.7675781,1.265625,0.7675781
			l0.5771484-0.0141602l0.1943359,0.4321289c0.1953125,0.4375,0.2304688,1.2167969-0.1728516,3.9047852l-0.1142578,0.7651367
			L19.1279297,39.4882812z"/>
		<path class="st1" d="M36.9179688,39.9907227c-0.0722656-0.6577148-0.1708984-1.3291016-0.2685547-1.9780273
			c-0.2519531-1.6606445-0.4023438-2.7895508-0.21875-3.3330078l0.1767578-0.5195312l0.5458984,0.0385742
			c0.7705078,0.0551758,1.2226562,0.402832,1.5859375,0.6821289c0.3242188,0.2504883,0.6035156,0.4663086,1.0585938,0.4663086
			c0.1367188,0,0.2861328-0.019043,0.4462891-0.0571289l0.7431641-0.175293l0.1210938,0.7543945
			c0.0888672,0.5532227,0.0517578,1.6860352-0.125,3.7875977l-0.0459061,0.5644531l-0.5615158,0.0795898
			c-0.9648438,0.137207-1.8515625,0.2412109-2.6865234,0.3188477l-0.6933594,0.0644531L36.9179688,39.9907227z"/>
		<path class="st1" d="M12.2001953,37.0639648c-3.7910156-1.8935547-5.8798828-4.2993164-5.8798828-6.7739258
			c0-1.6435547,0.9023438-3.2749023,2.6093874-4.717783c0.5067024-0.4290638,1.1117458-0.7524662,1.6660271-1.1161098
			c0.2465601-0.1617584,0.4931192-0.3235168,0.7396784-0.4852734c0.074707-0.0490131,0.2612858-0.1243896,0.3091259-0.2028065
			c-0.0000095,0.0000153-1.6074219,2.6337891-1.6074219,2.6337891c-0.3085938,0.6987305-0.4130859,1.3955078-0.3085938,2.0717773
			c0.1943359,1.2431641,1.0820312,2.3032227,2.3164062,2.765625c2.0136719,0.7539062,1.4863281,3.6108398,1.171875,5.3178711
			l-0.1728516,0.9291992L12.2001953,37.0639648z"/>
		<path class="st29" d="M20.942379,14.3051748c-1.465065-0.5154476-2.9516125-0.9929132-4.3941002-1.5689468
			c-0.4684334-0.1870623-0.9354887-0.3776588-1.4032173-0.5664816c-0.2073078-0.0836916-0.6405716-0.3673677-0.8684444-0.3505993
			c2.3766994-0.1746397,4.7679348-0.4763737,7.1530704-0.4763737c0.4082031,0,0.7587891,0.0131836,1.0566311,0.0390491
			c-1.4643631-1.8755407-2.8052788-3.8614702-3.8329258-6.0125122c-0.5569439-1.1657767-1.114994-2.3310635-1.6757126-3.4951031
			c-0.0124321-0.0258113-0.0289917-0.0897907-0.0521393-0.1082413c1.7981949,1.6746335,3.5607605,3.4025187,5.451086,4.9741416
			c0.89641,0.7452788,1.8559589,1.5699158,2.9336948,2.0478477c0.1206264,0.0534935,0.2429886,0.104701,0.3713188,0.1368494
			l0.0644531-0.2446289c0.2490234-0.9335938,0.8330078-3.1191406,1.2587891-5.0219727l0.546875-2.4394531l0.8183594,2.3618164
			c0.6210938,1.7949219,0.9296875,3.0419922,0.9355469,3.784668c1.1142578-0.6054688,2.0283203-1.2382812,2.7197266-1.8828125
			l1.3349609-1.2436523l-0.1425781,1.8188477c-0.0771484,0.9711914-0.2646484,2.2851562-0.7246094,3.0317383l-0.1826172,0.4018555
			l-0.4619141,0.0068359L31.578125,9.4936523c-2.5917969,0-5.2207031,1.2646484-7.2089844,3.4697266
			c-1.2197266,1.3540039-2.0761719,3.1445312-2.3505859,4.9130859l-0.0888672,0.5791016L21.34375,18.4770508
			c-0.0800781,0.0029297-1.5644531,0.0629883-3.7958984,0.2109375l-2.2480469,0.1489258
			C15.2998047,18.8369141,20.9423828,14.3051758,20.942379,14.3051748z"/>
		<path class="st1" d="M43.9101562,38.8237305c-0.2275391-2.4570312,0.0546875-3.5600586,0.9746094-3.8071289
			c0.1835938-0.0498047,0.3613281-0.0742188,0.5449219-0.0742188c0.4736328,0,0.8632812,0.1665039,1.2392578,0.3271484
			c0.3759766,0.1591797,0.765625,0.3237305,1.2304688,0.3237305c0.4833984,0,1.0126953-0.1728516,1.6191406-0.5283203
			c1.1767578-0.6914062,1.1796875-1.5166016,1.1826172-2.390625c0.0029297-0.862793,0.0058594-1.7548828,1.1904297-2.3710938
			c1.0107422-0.5268555,1.7011719-1.4755859,1.8955078-2.6030273c0.0761719-0.4414062,0.0585938-0.909668-0.0527344-1.3920898
			c0,0-0.52034-1.9158897-0.5205078-1.9165039c0.0109329,0.0402603,0.1569176,0.1140976,0.1889801,0.1374092
			c0.1453285,0.1056709,0.2906609,0.2113438,0.4359894,0.3170147c1.2348442,0.8978729,2.4251556,1.8978291,3.1064568,3.3197937
			c0.3174286,0.6625118,0.5049019,1.387476,0.5049019,2.1242199c0,3.824707-4.7353516,7.2480469-12.6669922,9.1577148
			l-0.796875,0.1923828L43.9101562,38.8237305z"/>
		<path class="st28" d="M57.4500122,30.2900391c0,5.8500366-11.5338745,10.8012695-25.6238403,10.8012695
			c-14.1000366,0-25.5061646-4.9512329-25.5061646-10.8012695c0-0.1499634,0.0100098-0.3099976,0.0299683-0.4599609
			C7.5499878,35.210022,18.5,39.4500732,31.7999878,39.4500732c13.6799927,0,24.8900146-4.4800415,25.5400391-10.0900269
			C57.4199829,29.6700439,57.4500122,29.9800415,57.4500122,30.2900391z"/>
		<path class="st30" d="M42.8447266,58.5957031c-0.5439453,0-1.0234375-0.1889648-1.4248047-0.5615234
			c-0.6738281-0.625-1.1220703-1.7392578-1.3710938-3.4067383c-0.515625-3.6821289-0.0253906-9.0244141,0.3330078-12.9248047
			c0.2421875-2.652832,0.5166016-5.6469727,0.2324219-6.0625l-0.0878906-0.0131836
			c-0.2207031,0.0961914-0.4814453,0.1450195-0.7275391,0.1450195c-0.5878906,0-0.9521484-0.2788086-1.3027344-0.5483398
			c-0.3945312-0.3032227-0.7636719-0.5869141-1.4697266-0.6108398c-0.0703125,0.0004883-0.0957031,0.0219727-0.1152344,0.0444336
			c-0.2949219,0.3310547-0.0673828,1.8369141,0.1533203,3.293457c0.4140625,2.7407227,0.6630859,4.9165039-0.1855469,5.9111328
			c-0.2861328,0.3330078-0.6767578,0.5029297-1.1601562,0.5053711c-0.3398438-0.0126953-0.8251953-0.078125-1.2060547-0.496582
			c-0.7002029-0.7709961-0.7197266-1.8173828-0.6835938-2.7373047c0.0380859-0.9575195,0.1318359-1.9311523,0.2275391-2.8408203
			c0.1552734-1.5048828,0.3486328-3.371582-0.1816406-3.4345703c-0.0439453-0.0053711-0.0869141-0.0078125-0.1289062-0.0078125
			c-0.4707031,0-0.7607422,0.3359375-1.2304688,1.0898438c-0.4580078,0.730957-0.9765625,1.5595703-2.09375,1.5595703
			c-0.2480469,0-0.5126953-0.0419922-0.8066406-0.1279297c-1.2080078-0.3530273-1.5605469-0.9179688-1.8447266-1.3720703
			c-0.3720703-0.5986328-0.6923828-1.1147461-2.9912109-1.1147461l-0.1757812,0.0009766
			c-0.3193359,0.0029297-0.5625,0.1079102-0.7646484,0.331543c-0.9384766,1.0405273-0.6386719,4.2338867-0.3203125,7.6142578
			c0.3632812,3.8706055,0.7392578,7.8706055-0.7021484,9.4008789c-0.4023438,0.4282227-0.9414062,0.6455078-1.6015625,0.6455078
			c-0.7705078-0.0244141-1.3554688-0.293457-1.7939453-0.8237305c-1.6396484-1.9921875-0.7910156-7.2641602-0.109375-11.5004883
			c0.4179688-2.5996094,0.8105469-5.0405273,0.3974609-5.5078125c-0.0253906-0.0292969-0.0566406-0.0483398-0.125-0.0483398
			l-0.1542969,0.0029297c-1.0439453,0-1.3603516-0.4262695-1.6669922-0.9838867
			c-0.2578125-0.4711914-0.5253906-0.9584961-1.6914062-1.1943359c-0.0380859-0.0078125-0.0751953-0.0117188-0.109375-0.0117188
			c-0.0830078,0-0.1445312,0.0219727-0.2001953,0.0722656c-0.4501953,0.402832-0.2939453,2.2119141-0.1435547,3.9619141
			c0.265625,3.0444336,0.3740234,5.2631836-0.6503906,6.1513672c-0.1044922,0.0898438-0.4179688,0.3608398-1.0039062,0.3608398
			c-0.1542969,0-0.3203125-0.0195312-0.4931641-0.0581055c-0.6396484-0.1445312-1.390625-0.7163086-1.3339844-2.6176758
			c0.0332031-1.0581055,0.2441406-2.0776367,0.4482422-3.0634766l0.0673828-0.3310547
			c0.1777344-0.8701172,0.3710938-1.8813477,0.4277344-2.871582c0.0341797-0.6347656,0.0302734-1.4423828-0.3115234-2.0556641
			c-0.1845703-0.3305664-0.4853516-0.5820312-0.8710938-0.7270508c-1.3759766-0.5146484-2.3662109-1.7006836-2.5830078-3.0942383
			c-0.2578125-1.6557617,0.5371094-3.3149414,2.2363281-4.6713867l0.09375-0.0986328l0.0957031-0.0507812
			c2.5175781-1.3261719,5.8476562-2.3994141,9.6308594-3.1049805l0.6445312-0.1196289L22.1874924,21.125
			c0.2509842,0.9287109,0.6718826,1.7954102,1.2509842,2.5761719c2.3046875,3.1108398,6.7402344,4.9677734,11.8642578,4.9677734
			l0.1103516-0.0004883c3.2431641-0.0175781,6.078125-0.8164062,6.8935547-1.9418945
			c0.8535156-1.1772461,0.9375-2.7714844,0.2646484-5.0161133l-0.3427734-1.1386719l1.1650391,0.2392578
			c3.8964844,0.7998047,7.2382812,2.0048828,9.6621094,3.4833984l0.1582031,0.097168l0.0917969,0.1625977
			c0.7666016,0.8310547,1.1035156,2.0170898,0.8964844,3.2177734c-0.2177734,1.2583008-0.9902344,2.3164062-2.1171875,2.9033203
			c-0.9589844,0.5-0.9609375,1.1621094-0.9638672,2c-0.0029297,0.9091797-0.0068359,1.9394531-1.3896484,2.7519531
			c-0.6787109,0.3984375-1.2587891,0.5844727-1.8251953,0.5844727c-0.5615234,0-1.0058594-0.1879883-1.3984375-0.3540039
			c-0.3574219-0.1523438-0.6923828-0.2949219-1.0751953-0.2949219c-0.1445312,0-0.2890625,0.0195312-0.4423828,0.0600586
			c-1.3164062,0.3535156-0.6162109,4.3647461,0.1240234,8.6118164c0.8867188,5.0737305,1.8896484,10.8105469,0.1279297,13.3032227
			c-0.4746094,0.6699219-1.1298828,1.0795898-1.9492188,1.2182617
			C43.1376953,58.5830078,42.9873047,58.5957031,42.8447266,58.5957031z"/>
		<path class="st31" d="M42.6900024,28.1599731c-0.8900146,1.2300415-3.8599854,2.1000366-7.2299805,2.1199951h-0.1600342
			c-5.2299805,0-9.7699585-1.9199829-12.1599731-5.1399536c-1.0700073-1.4500122-1.5499878-3.0200195-1.5900269-4.5600586
			l0.4700317-0.0899658l0.1699829,0.6300049c0.25,0.9299927,0.6699829,1.7999878,1.25,2.5800171
			c2.2999878,3.1099854,6.7399902,4.9699707,11.8599854,4.9699707h0.1099854
			c3.25-0.0200195,6.0800171-0.8200073,6.9000244-1.9400024c0.8499756-1.1799927,0.9299927-2.7700195,0.2600098-5.0200195
			l-0.25-0.8399658C43.5200195,23.7799683,43.9799805,26.3900146,42.6900024,28.1599731z"/>
		<path class="st32" d="M54.2000122,27.7699585c-0.2200317,1.2600098-0.9899902,2.3200073-2.1199951,2.9100342
			c-0.9500122,0.5-0.960022,1.1599731-0.960022,2c0,0.8999634-0.0100098,1.9299927-1.3900146,2.75
			c-0.6799927,0.3999634-1.2600098,0.5800171-1.8200073,0.5800171c-0.5699463,0-1.0099487-0.1900024-1.3999634-0.3500366
			c-0.3599854-0.1499634-0.6900024-0.2999878-1.0800171-0.2999878c-0.1400146,0-0.289978,0.0200195-0.4400024,0.0599976
			c-1.3200073,0.3599854-0.6199951,4.3699951,0.1199951,8.6099854C46,49.1099854,47,54.8499756,45.2399902,57.3399658
			c-0.4699707,0.6700439-1.1300049,1.0800171-1.9500122,1.2200317c-0.1499634,0.0199585-0.2999878,0.039978-0.4499512,0.039978
			c-0.5400391,0-1.0200195-0.1900024-1.4200439-0.5700073C40.75,57.4099731,40.2999878,56.289978,40.0499878,54.6300049
			c-0.5199585-3.6799927-0.0299683-9.0300293,0.3300171-12.9299927c0.2399902-2.6500244,0.5200195-5.6400146,0.2299805-6.0599976
			l-0.0799561-0.0100098c-0.2200317,0.0899658-0.4900513,0.1399536-0.7300415,0.1399536
			c-0.5899658,0-0.9500122-0.2799683-1.2999878-0.5499878c-0.4000244-0.2999878-0.7700195-0.5799561-1.4699707-0.6099854
			c-0.0700073,0-0.1000366,0.0200195-0.1200562,0.0499878c-0.289978,0.3300171-0.0699463,1.8300171,0.1500244,3.2900391
			c0.4199829,2.7399902,0.6699829,4.9199829-0.1799927,5.9099731c-0.289978,0.3300171-0.6799927,0.5-1.1600342,0.5100098
			c-0.3399658-0.0200195-0.8299561-0.0800171-1.2099609-0.5c-0.7000122-0.7700195-0.7200317-1.8200073-0.6799927-2.7399902
			c0.039978-0.9500122,0.1300049-1.9299927,0.2299805-2.8400269c0.1500244-1.5,0.3499756-3.3699951-0.1799927-3.4299927
			C33.8300171,34.8499756,33.789978,34.8499756,33.75,34.8499756c-0.4699707,0-0.7600098,0.3400269-1.2299805,1.0900269
			C32.0599976,36.6699829,31.539978,37.5,30.4199829,37.5c-0.25,0-0.5100098-0.0400391-0.7999878-0.1300049
			C28.4099731,37.0199585,28.0499878,36.4500122,27.7700195,36c-0.3699951-0.6000366-0.6900024-1.1199951-2.9899902-1.1199951
			l-0.1800537,0.0100098c-0.3199463,0-0.5599976,0.0999756-0.7599487,0.3299561
			c-0.9400024,1.0400391-0.6400146,4.2300415-0.3200073,7.6099854c0.3599854,3.8700562,0.7399902,7.8700562-0.7000122,9.4000244
			c-0.4100342,0.4299927-0.9400024,0.6500244-1.6099854,0.6500244c-0.7700195-0.0300293-1.3500366-0.3000488-1.7900391-0.8300171
			c-1.6399536-1.9899902-0.789978-7.2600098-0.1099854-11.5c0.4199829-2.5999756,0.8099976-5.039978,0.4000244-5.5
			C19.6799927,35.0199585,19.6500244,35,19.5800171,35h-0.1500244c-1.039978,0-1.3599854-0.4299927-1.6699829-0.9800415
			C17.5,33.5499878,17.2399902,33.0599976,16.0700073,32.8200073C16.0300293,32.8099976,16,32.8099976,15.960022,32.8099976
			c-0.0800171,0-0.1400146,0.0199585-0.2000122,0.0700073c-0.4500122,0.4099731-0.2900391,2.2099609-0.1400146,3.9599609
			C15.8800049,39.8900146,15.9899902,42.1099854,14.9699707,43c-0.1099854,0.0899658-0.4199829,0.3599854-1.0099487,0.3599854
			c-0.1500244,0-0.3200073-0.0200195-0.4900513-0.0599976c-0.6399536-0.1500244-1.3899536-0.7200317-1.3299561-2.6199951
			c0.0299683-1.0599976,0.2399902-2.0800171,0.4400024-3.0599976l0.0700073-0.3300171
			c0.1799927-0.8699951,0.3699951-1.8800049,0.4299927-2.8699951c0.0299683-0.6400146,0.0299683-1.4500122-0.3099976-2.0599976
			c-0.1900024-0.3300171-0.4899902-0.5800171-0.8699951-0.7299805c-1.3800049-0.5100098-2.3699951-1.7000122-2.5900269-3.0900269
			c-0.2199707-1.460022,0.3599854-2.9199829,1.6599731-4.1599731c-0.5199585,1.5199585-0.789978,3.2399902-0.6699829,4
			c0.1600342,1.039978,0.9100342,1.9299927,1.9500122,2.3200073c0.6099854,0.2299805,1.0900269,0.6299438,1.3900146,1.1699829
			c0.4699707,0.8399658,0.4799805,1.8300171,0.4400024,2.5999756c-0.0599976,1.0700073-0.2600098,2.1199951-0.4500122,3.0200195
			l-0.0700073,0.3300171c-0.1900024,0.9400024-0.3900146,1.9199829-0.4199829,2.8899536
			c-0.0200195,0.5500488,0.0299683,1.5,0.5499878,1.6100464c0.0999756,0.0299683,0.1900024,0.039978,0.2700195,0.039978
			c0.2199707,0,0.2999878-0.0800171,0.3499756-0.1199951c0.7200317-0.6199951,0.4799805-3.4400024,0.3099976-5.3200073
			c-0.2199707-2.5800171-0.3099976-4.0800171,0.4700317-4.7799683c0.2399902-0.2200317,0.539978-0.3300171,0.8699951-0.3300171
			c0.0999756,0,0.2099609,0.0100098,0.3099976,0.0299683c1.5,0.3099976,1.9899902,1.0100098,2.3699951,1.6900024
			C18.8499756,33.9199829,18.9000244,34,19.4099731,34h0.1700439c0.3499756,0,0.6699829,0.1400146,0.8800049,0.3800049
			c0.6599731,0.7600098,0.5,2.25-0.1600342,6.3299561c-0.5800171,3.6100464-1.4599609,9.0700073-0.1099854,10.710022
			c0.2600098,0.3099976,0.5700073,0.4400024,1.0200195,0.460022c0.5099487,0,0.7399902-0.1900024,0.8800049-0.3300171
			c1.1299438-1.2000122,0.7399902-5.3200073,0.4299927-8.6199951c-0.4100342-4.3500366-0.6000366-7.0800171,0.5799561-8.3800049
			c0.3900146-0.4400024,0.8900146-0.6599731,1.5-0.6599731l0.1800537-0.0100098c2.4099731,0,3.1899414,0.539978,3.8399658,1.5899658
			c0.2399902,0.3900146,0.4299927,0.7000122,1.2800293,0.9400024C30.0999756,36.4699707,30.2700195,36.5,30.4199829,36.5
			c0.5100098,0,0.7700195-0.3300171,1.25-1.0900269C32.0800171,34.75,32.6400146,33.8499756,33.75,33.8499756
			c0.0800171,0,0.1599731,0,0.2399902,0.0100098c1.5100098,0.1799927,1.3099976,2.0999756,1.0599976,4.539978
			c-0.0899658,0.8900146-0.1799927,1.8400269-0.2199707,2.7700195C34.789978,42.0899658,34.8499756,42.7600098,35.25,43.2000122
			c0.0900269,0.0899658,0.210022,0.1599731,0.460022,0.1699829c0.2399902,0,0.3399658-0.0800171,0.4099731-0.1600342
			c0.6199951-0.7199707,0.2200317-3.3599854-0.039978-5.1099854c-0.3500366-2.3099976-0.5-3.4500122,0.0799561-4.0999756
			c0.210022-0.25,0.5200195-0.3800049,0.9000244-0.3900146c1.0300293,0.039978,1.6199951,0.4899902,2.0499878,0.8200073
			c0.3200073,0.25,0.460022,0.3399658,0.6900024,0.3399658c0.1099854,0,0.2399902-0.0199585,0.3300171-0.0599976
			l0.3499756-0.0999756l0.710022,0.1099854l0.25,0.3599854c0.4099731,0.5900269,0.4000244,1.6600342-0.0599976,6.710022
			c-0.3599854,3.8599854-0.8400269,9.1300049-0.3400269,12.6900024c0.210022,1.4100342,0.5700073,2.3599854,1.0599976,2.8200073
			c0.2200317,0.2000122,0.4500122,0.2999878,0.7400513,0.2999878c0.0899658,0,0.1900024-0.0100098,0.289978-0.0299683
			c0.5499878-0.0900269,0.9799805-0.3600464,1.2999878-0.8099976c1.5200195-2.1500244,0.5100098-7.9200439-0.2999878-12.5599976
			c-0.960022-5.5100098-1.5999756-9.1500244,0.5999756-9.7400513c0.2399902-0.0699463,0.4700317-0.0999756,0.7000122-0.0999756
			c0.5900269,0,1.0599976,0.2000122,1.4700317,0.3800049c0.3499756,0.1400146,0.6499634,0.2700195,1.0099487,0.2700195
			c0.3800049,0,0.8000488-0.1400146,1.3099976-0.4500122c0.9000244-0.5200195,0.9000244-1.0300293,0.9000244-1.8900146
			c0-0.8900146,0.0100098-2.0999756,1.5-2.8800049c0.8499756-0.4400024,1.5999756-2.1400146,1.7600098-3.0899658
			c0.0800171-0.5-0.1699829-1.5700073-0.5100098-2.5200195C52.9400024,24.2199707,53,24.25,53.0599976,24.289978
			l0.1500244,0.1000366l0.0999756,0.1599731C54.0700073,25.3900146,54.4099731,26.5700073,54.2000122,27.7699585z"/>
		<path class="st4" d="M35.2607422,29.0893555c-5.2294922,0-9.7753906-1.9208984-12.1611328-5.1381836
			C20.25,20.1035156,21.5976562,15.4125977,24.0566406,12.6826172c2.0478516-2.2714844,4.8720703-3.6274414,7.5556641-3.6274414
			c0.2880859,0,0.5742188,0.015625,0.8574219,0.0473633c2.9160156,0.3251953,5.4443359,2.2558594,7.3105469,5.5830078
			c2.6679688,4.7548828,4.8623047,9.5341797,2.8662109,12.2871094c-0.8896484,1.2275391-3.8613281,2.0976562-7.2265625,2.1157227
			l-0.1582031,0.0009766H35.2607422z"/>
		<path class="st33" d="M42.6500244,26.9699707c-0.8900146,1.2300415-3.8600464,2.1000366-7.2300415,2.1199951h-0.1599731
			c-5.2299805,0-9.7700195-1.9199829-12.1600342-5.1399536c-0.6900024-0.9300537-1.1300049-1.9200439-1.3699951-2.9100342
			c0.2200317,0.5,0.5100098,0.9899902,0.8600464,1.460022c2.3799438,3.2199707,6.9299927,5.1400146,12.1599731,5.1400146h0.1599731
			C38.2700195,27.6199951,41.25,26.75,42.1400146,25.5299683c1.0100098-1.3999634,0.9400024-3.3200073,0.2799683-5.5
			C43.5100098,22.7999878,43.8800049,25.2699585,42.6500244,26.9699707z"/>
		<path class="st34" d="M30.6123657,11.7431641c-0.3577271,0-0.647583,0.2903442-0.647583,0.6484985
			c0,0.3582153,0.289856,0.6486816,0.647583,0.6486816c0.359314,0,0.6491699-0.2904663,0.6491699-0.6486816
			C31.2615356,12.0335083,30.9716797,11.7431641,30.6123657,11.7431641z"/>
		<path class="st34" d="M25.272644,19.199646c-0.3592529,0-0.6491699,0.2905273-0.6491699,0.6487427
			c0,0.3581543,0.289917,0.6484985,0.6491699,0.6484985c0.3577271,0,0.647644-0.2903442,0.647644-0.6484985
			C25.9202881,19.4901733,25.6303711,19.199646,25.272644,19.199646z"/>
		<path class="st34" d="M32.1173096,18.1871948c-0.3592529,0-0.6491089,0.2904053-0.6491089,0.6485596
			c0,0.3582153,0.289856,0.6485596,0.6491089,0.6485596c0.3577881,0,0.647644-0.2903442,0.647644-0.6485596
			C32.7649536,18.4776001,32.4750977,18.1871948,32.1173096,18.1871948z"/>
		<path class="st34" d="M37.9366455,18.0529175c-0.359314,0-0.6491699,0.2903442-0.6491699,0.6485596
			c0,0.3581543,0.289856,0.6484985,0.6491699,0.6484985c0.3577271,0,0.647583-0.2903442,0.647583-0.6484985
			C38.5842285,18.3432617,38.2943726,18.0529175,37.9366455,18.0529175z"/>
		<path class="st34" d="M35.640686,12.6500854c-0.359314,0-0.6491699,0.2903442-0.6491699,0.6485596
			s0.289856,0.6485596,0.6491699,0.6485596c0.3577271,0,0.647583-0.2903442,0.647583-0.6485596
			S35.9984131,12.6500854,35.640686,12.6500854z"/>
		<path class="st34" d="M28.5708618,22.6670532c-0.3577271,0-0.647583,0.2903442-0.647583,0.6484985
			c0,0.3582153,0.289856,0.6485596,0.647583,0.6485596c0.359314,0,0.6491699-0.2903442,0.6491699-0.6485596
			C29.2200317,22.9573975,28.9301758,22.6670532,28.5708618,22.6670532z"/>
		<path class="st34" d="M25.9680786,14.1257324c-0.3577271,0-0.6491699,0.2903442-0.6491699,0.6485596
			s0.2914429,0.6485596,0.6491699,0.6485596s0.647583-0.2903442,0.647583-0.6485596S26.3258057,14.1257324,25.9680786,14.1257324z"
			/>
		<path class="st34" d="M39.2195435,23.6688232c-0.3577881,0-0.6491699,0.2903442-0.6491699,0.6485596
			c0,0.3581543,0.2913818,0.6485596,0.6491699,0.6485596c0.3577271,0,0.647583-0.2904053,0.647583-0.6485596
			C39.8671265,23.9591675,39.5772705,23.6688232,39.2195435,23.6688232z"/>
		<path class="st34" d="M34.2652588,24.4003296c-0.3577271,0-0.6491699,0.2905273-0.6491699,0.6486816
			c0,0.3582153,0.2914429,0.6485596,0.6491699,0.6485596s0.6491699-0.2903442,0.6491699-0.6485596
			C34.9144287,24.6908569,34.6229858,24.4003296,34.2652588,24.4003296z"/>
	</g>
</g>
<g id="Layer_5">
</g>
<g id="Layer_6">
</g>
<g id="Layer_7">
</g>
<g id="Layer_8">
</g>
<g id="Layer_9">
</g>
<g id="Layer_10">
</g>
<g id="Layer_11">
</g>
<g id="Layer_12">
</g>
<g id="Layer_13">
</g>
<g id="Layer_14">
</g>
<g id="Layer_15">
</g>
<g id="Layer_16">
</g>
<g id="Layer_17">
</g>
<g id="Layer_18">
</g>
<g id="Layer_19">
</g>
<g id="Layer_20">
</g>
<g id="Layer_21">
</g>
<g id="Layer_22">
</g>
<g id="Layer_23">
</g>
<g id="Layer_24">
</g>
<g id="Layer_25">
</g>
<g id="Layer_26">
</g>
<g id="Layer_27">
</g>
</svg>
