<?xml version="1.0" encoding="utf-8"?>
<!-- Generator: Adobe Illustrator 26.5.0, SVG Export Plug-In . SVG Version: 6.00 Build 0)  -->
<svg version="1.1" id="Layer_9" xmlns="http://www.w3.org/2000/svg" xmlns:xlink="http://www.w3.org/1999/xlink" x="0px" y="0px"
	 viewBox="0 0 512 512" enable-background="new 0 0 512 512" xml:space="preserve">
<path fill="#DBA34C" d="M256.271,8.389c136.96,0,248,111.04,248,248s-111.04,248-248,248s-248-111.04-248-248
	S119.311,8.389,256.271,8.389z"/>
<path fill="#EFCB7B" d="M256.271,256.389v208c-57.44,0-109.44-23.28-147.04-60.96L256.271,256.389z"/>
<path fill="#EFCB7B" d="M256.271,256.389h208c0,57.44-23.28,109.44-60.96,147.04L256.271,256.389z"/>
<path fill="#F2C555" d="M464.271,256.389h-208l147.04-147.04C440.991,146.949,464.271,198.949,464.271,256.389z"/>
<path fill="#F2C555" d="M256.271,256.389l147.04,147.04c-37.6,37.68-89.6,60.96-147.04,60.96V256.389z"/>
<circle fill="#E87570" cx="416.271" cy="216.389" r="16"/>
<circle fill="#E87570" cx="400.271" cy="336.389" r="16"/>
<path fill="#EFCB7B" d="M403.311,109.349l-147.04,147.04v-208C313.711,48.389,365.711,71.669,403.311,109.349z"/>
<circle fill="#E87570" cx="360.271" cy="296.389" r="16"/>
<circle fill="#E87570" cx="352.271" cy="216.389" r="16"/>
<circle fill="#E87570" cx="344.271" cy="112.389" r="16"/>
<circle fill="#E87570" cx="296.271" cy="152.389" r="16"/>
<circle fill="#E87570" cx="296.271" cy="352.389" r="16"/>
<circle fill="#E87570" cx="296.271" cy="416.389" r="16"/>
<path fill="#F2C555" d="M256.271,48.389v208l-147.04-147.04C146.831,71.669,198.831,48.389,256.271,48.389z"/>
<path fill="#F2C555" d="M256.271,256.389l-147.04,147.04c-37.68-37.6-60.96-89.6-60.96-147.04H256.271z"/>
<path fill="#EFCB7B" d="M256.271,256.389h-208c0-57.44,23.28-109.44,60.96-147.04L256.271,256.389z"/>
<circle fill="#E87570" cx="216.271" cy="96.389" r="16"/>
<circle fill="#E87570" cx="216.271" cy="160.389" r="16"/>
<circle fill="#E87570" cx="216.271" cy="344.389" r="16"/>
<circle fill="#E87570" cx="216.271" cy="416.389" r="16"/>
<circle fill="#E87570" cx="160.271" cy="296.389" r="16"/>
<circle fill="#E87570" cx="152.271" cy="216.389" r="16"/>
<circle fill="#E87570" cx="112.271" cy="168.389" r="16"/>
<circle fill="#E87570" cx="96.271" cy="304.389" r="16"/>
</svg>
