<?xml version="1.0" encoding="utf-8"?>
<!-- Generator: Adobe Illustrator 26.0.2, SVG Export Plug-In . SVG Version: 6.00 Build 0)  -->
<svg version="1.1" xmlns="http://www.w3.org/2000/svg" xmlns:xlink="http://www.w3.org/1999/xlink" x="0px" y="0px"
	 viewBox="0 0 64 64" style="enable-background:new 0 0 64 64;" xml:space="preserve">
<style type="text/css">
	.st0{fill:#EABE03;}
	.st1{fill:#FFA963;}
	.st2{fill:#F49853;}
	.st3{fill:#EF4E0F;}
	.st4{fill:#F40B1C;}
	.st5{fill:#A02E14;}
	.st6{fill:#93210F;}
	.st7{fill:#759905;}
	.st8{fill:#77A505;}
	.st9{fill:#91BC08;}
	.st10{fill:#F9C900;}
	.st11{fill:#F9B480;}
	.st12{fill:#8AB504;}
	.st13{fill:#F7C800;}
	.st14{fill:#E8BC03;}
	.st15{fill:#C6632C;}
	.st16{fill:#EAD5C5;}
	.st17{fill:#DDC8BA;}
	.st18{fill:#CE7436;}
	.st19{fill:#D37E44;}
	.st20{fill:#C66D32;}
	.st21{fill:#BA5725;}
	.st22{fill:#DB7E40;}
	.st23{fill:#C97135;}
	.st24{fill:#EF8E4B;}
	.st25{fill:#E58645;}
	.st26{fill:#F49751;}
	.st27{fill:#E88C4D;}
	.st28{fill:#F49E5D;}
	.st29{fill:#5B9B10;}
	.st30{fill:#F9E028;}
	.st31{fill:#E8CC23;}
	.st32{fill:#F4CB00;}
	.st33{fill:#E80A25;}
	.st34{fill:#D30B23;}
	.st35{fill:#ED0723;}
	.st36{fill:#F7612D;}
	.st37{fill:#87AF09;}
	.st38{fill:#9CBF08;}
	.st39{fill:#EDB106;}
	.st40{fill:#912614;}
	.st41{fill:#89B209;}
	.st42{fill:#F7B03F;}
	.st43{fill:#FCBA59;}
	.st44{fill:#EDA53B;}
	.st45{fill:#F7BB63;}
	.st46{fill:#F9C178;}
	.st47{fill:#FCBD72;}
	.st48{fill:#FCC281;}
	.st49{fill:#EFAE67;}
	.st50{fill:#F9E955;}
	.st51{fill:#31AF38;}
	.st52{fill:#2BA32D;}
	.st53{fill:#B41D1F;}
	.st54{fill:#A31920;}
	.st55{fill:#D3983D;}
	.st56{fill:#C98935;}
	.st57{fill:#F78D37;}
	.st58{fill:#E27829;}
	.st59{fill:#EF8333;}
	.st60{fill:#E8E8E8;}
	.st61{fill:#E87D34;}
	.st62{fill:#F7B27F;}
	.st63{fill:#EDA677;}
	.st64{opacity:0.1;}
	.st65{fill:#FCB47E;}
	.st66{fill:#FCA15E;}
	.st67{fill:#E88949;}
	.st68{fill:#9EC10C;}
	.st69{fill:#E83B05;}
	.st70{fill:#E20E28;}
	.st71{fill:#D6AE05;}
	.st72{fill:#EDC107;}
	.st73{fill:#E5BA05;}
	.st74{fill:#FFD527;}
	.st75{fill:#932412;}
	.st76{fill:#F49C5B;}
	.st77{fill:#F28F4C;}
	.st78{fill:#FCC683;}
	.st79{fill:#FCD59D;}
	.st80{fill:#599306;}
	.st81{fill:#F7BE7F;}
	.st82{fill:#DDB40A;}
	.st83{fill:#F9E8DC;}
	.st84{fill:#CE452E;}
	.st85{fill:#BF3C2B;}
	.st86{fill:#C6A20C;}
	.st87{fill:#F7C4BF;}
	.st88{fill:#DD8080;}
	.st89{fill:#E59491;}
	.st90{fill:#F7F6F0;}
	.st91{fill:#EAE9E5;}
	.st92{fill:#FFFFFF;}
	.st93{fill:#EAEAE8;}
	.st94{fill:#F9D84E;}
	.st95{fill:#F7F0EB;}
	.st96{fill:#EAE4E1;}
	.st97{fill:#D37231;}
	.st98{fill:#E28647;}
	.st99{fill:#DBCCC3;}
	.st100{fill:#CEC2BC;}
	.st101{fill:#DDD1CC;}
	.st102{fill:#F9DAC5;}
	.st103{fill:#EADAD0;}
	.st104{fill:#EDCCB7;}
	.st105{fill:#EAA239;}
	.st106{fill:#CFE589;}
	.st107{fill:#AF5F33;}
	.st108{fill:#D8D8D8;}
	.st109{fill:#F4F2F2;}
	.st110{fill:#EAEAEA;}
	.st111{fill:#E5E5E5;}
	.st112{fill:#8E4424;}
	.st113{opacity:0.25;}
	.st114{fill:#F3A1B1;}
	.st115{fill:#F18896;}
	.st116{fill:#E0DCDC;}
	.st117{fill:#872738;}
	.st118{fill:#D8B10F;}
	.st119{fill:#E0B80E;}
	.st120{fill:#F2C611;}
	.st121{fill:#F7CE21;}
	.st122{fill:#B7632A;}
	.st123{fill:#C46C30;}
	.st124{fill:#D30F30;}
	.st125{fill:#EAE7E5;}
	.st126{fill:#F4F1EF;}
	.st127{fill:#EDE6E2;}
	.st128{fill:#DDD7D4;}
	.st129{fill:#F9F0EA;}
	.st130{fill:#DBDAD9;}
	.st131{fill:#DB8245;}
	.st132{fill:#EF924D;}
	.st133{fill:#EF9856;}
	.st134{fill:#E2B807;}
	.st135{fill:#F1A3B0;}
	.st136{fill:#F2B865;}
	.st137{fill:#F9C580;}
	.st138{fill:#872E39;}
	.st139{opacity:0.44;}
	.st140{fill:#F9B2C1;}
	.st141{fill:#D60F27;}
	.st142{fill:#E25F52;}
	.st143{fill:#C1432F;}
	.st144{fill:#E2AD05;}
	.st145{fill:#F4F4F4;}
	.st146{fill:#E0DEDE;}
</style>
<g id="Layer_1">
</g>
<g id="Layer_2">
</g>
<g id="Layer_3">
</g>
<g id="Layer_4">
</g>
<g id="Layer_5">
</g>
<g id="Layer_6">
	<g>
		<path class="st42" d="M46.59375,19.5273438c-2.0371094-2.8496094-6.0507812-5.5126953-11.3017578-7.4995117
			c-4.2792969-1.6191406-8.9082031-2.5473633-12.7001953-2.5473633c-2.3642578,0-4.3056641,0.355957-5.7695312,1.0585938
			l-0.6367188,0.3051758l-0.1536312-0.2777491l-0.1559391-0.3565283c-0.6142578-1.2646484-0.8378906-2.7436523-0.6464844-4.2783203
			c0.1171875-0.9379883,0.609375-1.7441406,1.4628906-2.3959961c1.4716797-1.1245117,4.0205078-1.7436523,7.1767578-1.7436523
			c1.2587891,0,2.5859375,0.0986328,3.9433479,0.293457c6.6992302,0.9599609,14.3222771,3.6499023,18.5390739,6.5415039
			c2.7548828,1.8896484,4.9716797,4.1679688,6.3457031,5.746582l1.2353516,1.4179688l0.7973633,0.9784546l-2.6616211-1.2265015
			c-0.1630859-0.0214844-0.3271484-0.0322266-0.4912109-0.0322266c-1.0048828,0-1.9746094,0.3945312-2.6601562,1.0830078
			c-0.6484375,0.652832-0.9970703,1.5097656-1.0351562,2.546875l-0.078125,2.0786133L46.59375,19.5273438z"/>
		<path class="st43" d="M54.7299805,16.7699585l-2.3599854-1.0899658l-0.25-0.289978
			C50.75,13.8200073,48.5300293,11.539978,45.7800293,9.6499634c-4.2200317-2.8899536-11.8400269-5.5799561-18.5400391-6.539978
			c-1.3599854-0.2000122-2.6900024-0.2999878-3.9500122-0.2999878c-3.1499634,0-5.6999512,0.6199951-7.1699829,1.75
			C15.8400269,4.7699585,15.5900269,5,15.3900146,5.25c0.2299805-0.6500244,0.6599731-1.2200317,1.2999878-1.710022
			c1.4699707-1.1300049,4.0200195-1.75,7.1799927-1.75c1.2600098,0,2.5900269,0.1000366,3.9400024,0.2999878
			c6.7000122,0.960022,14.3200073,3.6500244,18.539978,6.5400391c2.7600098,1.8899536,4.9700317,4.1599731,6.3500366,5.7399902
			l1.2299805,1.4199829L54.7299805,16.7699585z"/>
		<path class="st42" d="M47.7399902,21.1400146c0.0200195-0.0200195,0.0400391-0.0300293,0.0599976-0.0400391v0.1199951
			L47.7399902,21.1400146z"/>
		<path class="st44" d="M48.5999756,16.9699707c-0.4499512,0.5900269-0.6900024,1.3200073-0.7199707,2.1700439l-0.0800171,1.9599609
			c-0.0199585,0.0100098-0.039978,0.0200195-0.0599976,0.0400391l-1.1499634-1.6100464
			c-2.0300293-2.8499756-6.0500488-5.5199585-11.3000488-7.5c-4.2799683-1.6199951-8.9099731-2.5499878-12.6999512-2.5499878
			c-2.3600464,0-4.3000488,0.3599854-5.7700195,1.0599976l-0.6300049,0.2999878l-0.1599731-0.2699585l-0.1500244-0.3600464
			c-0.289978-0.5899658-0.5-1.2299805-0.6099854-1.8999634c1.5100098-0.9700317,3.8999634-1.5,6.8099976-1.5
			c1.2600098,0,2.5899658,0.0999756,3.9500122,0.2999878c6.6899414,0.960022,14.3199463,3.6500244,18.5299683,6.539978
			C46.0900269,14.7000122,47.460022,15.8699951,48.5999756,16.9699707z"/>
		<path class="st42" d="M52.1500244,20.8099976l-1.8699951-0.25c-0.1600342-0.0200195-0.3300171-0.0300293-0.4900513-0.0300293
			c-0.7099609,0-1.3999634,0.2000122-1.9899902,0.5700073l0.0800171-1.9599609
			c0.0299683-0.8500366,0.2700195-1.5800171,0.7199707-2.1700439c0.9200439,0.8800049,1.7000122,1.7200317,2.3099976,2.4200439
			L52.1500244,20.8099976z"/>
		<path class="st45" d="M44.4199219,21.7885742c0.0859375-0.2402344,0.1279297-0.472168,0.1308594-0.7104492
			c0.0166016-1.9418945-2.15625-2.7587891-4.4570312-3.6235352c-1.5351562-0.5776367-3.1162109-1.1723633-4.1337891-2.1430664
			c-3.2451172-3.0913086-6.3789062-3.265625-10.0078125-3.4677734c-1.5966797-0.0888672-3.2460938-0.1811523-5.1152344-0.4970703
			c-0.5996094-0.1010742-1.1621094-0.1523438-1.671875-0.1523438c-0.6982422,0-1.3095703,0.0917969-1.8681641,0.28125
			l-0.6346416,0.2637758l-0.6303177-1.1728725l0.6887875-0.4434423c1.5390625-0.7133789,3.5371094-1.0717773,5.9511719-1.0717773
			c3.8300781,0,8.3642578,0.9174805,12.7675781,2.5834961c6.2265625,2.3554688,10.7324219,5.6791992,12.3623047,9.1186523
			l0.3183594,0.6713867l-0.6855469,0.2871094c-0.6337891,0.265625-1.3330078,0.5927734-2.0224609,0.9462891l-1.5917969,0.8168945
			L44.4199219,21.7885742z"/>
		<path class="st46" d="M48.1199951,21.4199829l-0.6599731,0.2800293l-0.0700073-0.1500244
			C45.7600098,18.1099854,41.25,14.789978,35.0200195,12.4299927c-4.4000244-1.6600342-8.9299927-2.5800171-12.7600098-2.5800171
			c-2.4199829,0-4.4199829,0.3599854-5.9500122,1.0700073l-0.0700073,0.039978l-0.2099609-0.3899536l0.6899414-0.4500122
			c1.5400391-0.710022,3.5400391-1.0700073,5.9500122-1.0700073c3.8300171,0,8.3699951,0.9199829,12.7700195,2.5800171
			C41.6699829,13.9899902,46.1699829,17.3099976,47.7999878,20.75L48.1199951,21.4199829z"/>
		<path class="st47" d="M29.2128906,35.2353516c-0.2880859-2.5112305,1.0683594-3.4643555,2.2832031-4.0141602l0.6240234-0.2758789
			c1.3271484-0.5756836,1.5664062-0.6791992,2.9697266-2.5229492c0.8505859-1.1157227,2.6464844-2.0175781,4.3828125-2.8901367
			c1.2636719-0.6352539,2.5517578-1.2827148,3.5244141-2.0253906l0.1425781-0.109375l0.109375-0.0175781
			c0.3095703-0.1982422,2.2958984-1.3491211,4.1669922-2.1152344l0.3105469-0.1264648
			c-0.7822266-2.6376953,0.2167969-4.1606445,0.8935547-4.840332c0.7636719-0.7675781,1.8476562-1.2080078,2.9755859-1.2080078
			c0.5634766,0,1.1181641,0.1157227,1.6044922,0.3339844c1.4589844,0.6577148,2.2275391,2.1230469,2.1074219,4.0205078
			c-0.3242188,5.1352539-3.4511719,6.0083008-7.7783203,7.2163086c-1.7216797,0.480957-3.6728516,1.0253906-5.7148438,1.9223633
			c-6.6484375,2.9223633-10.1923828,5.9291992-11.4072266,7.0864258l-1.0332031,0.9829102L29.2128906,35.2353516z"/>
		<path class="st48" d="M54.2399902,16.1499634c-0.0999756-0.0700073-0.2099609-0.1199951-0.3200073-0.1699829
			c-0.4799805-0.2199707-1.039978-0.3399658-1.5999756-0.3399658c-1.1300049,0-2.210022,0.4399414-2.9799805,1.2099609
			c-0.6700439,0.6799927-1.6700439,2.2000122-0.8900146,4.8400269l-0.3099976,0.1300049
			c-1.8699951,0.7599487-3.8599854,1.9099731-4.1700439,2.1099854l-0.1099854,0.0200195l-0.1400146,0.1099854
			C42.75,24.7999878,41.460022,25.4500122,40.2000122,26.0899658c-1.7399902,0.8699951-3.5400391,1.7700195-4.3900146,2.8900146
			C34.4099731,30.8200073,34.1699829,30.9199829,32.8400269,31.5l-0.6200562,0.2699585
			C31,32.3200073,29.6500244,33.2799683,29.9400024,35.789978l0.0299683,0.289978l-0.5999756,0.5700073l-0.1599731-1.4099731
			c-0.2900391-2.5200195,1.0700073-3.4700317,2.289978-4.0200195l0.6199951-0.2699585
			c1.3300171-0.5800171,1.5700073-0.6800537,2.9700317-2.5300293c0.8499756-1.1099854,2.6499634-2.0200195,4.3799438-2.8900146
			C40.7399902,24.8999634,42.0200195,24.25,43,23.5100098l0.1400146-0.1100464L43.25,23.3800049
			c0.3099976-0.2000122,2.289978-1.3500366,4.1699829-2.1199951l0.3099976-0.1199951
			c-0.789978-2.6400146,0.210022-4.1600342,0.8900146-4.8400269c0.7600098-0.7700195,1.8499756-1.210022,2.9799805-1.210022
			c0.5599976,0,1.1100464,0.1199951,1.6000366,0.3300171C53.6099854,15.5999756,53.960022,15.8499756,54.2399902,16.1499634z"/>
		<path class="st49" d="M55.3099976,19.4400024c-0.3300171,5.1399536-3.4500122,6.0100098-7.7799683,7.2199707
			c-1.7200317,0.4800415-3.6700439,1.0300293-5.7200317,1.9199829c-6.6400146,2.9300537-10.1900024,5.9300537-11.4000244,7.0900269
			l-1.039978,0.9799805l-0.1500244-1.2799683l0.7600098-0.7200317c1.2200317-1.1599731,4.7600098-4.1699829,11.4100342-7.0899658
			c2.039978-0.9000244,3.9899902-1.4400024,5.7099609-1.9199829c4.3300171-1.210022,7.460022-2.0800171,7.7800293-7.2200317
			c0.039978-0.5999756-0.0100098-1.1500244-0.1500244-1.6500244C55.1699829,17.4899902,55.3800049,18.3999634,55.3099976,19.4400024
			z"/>
		<path class="st30" d="M40.2299805,17.0599976C38.75,16.5,37.210022,15.9199829,36.25,15.0100098
			c-3.3599854-3.2000122-6.4099731-3.3699951-10.2800293-3.5900269C24.460022,11.3399658,22.7600098,11.25,20.9099731,10.9299927
			c-0.6599731-0.1099854-1.2399902-0.1600342-1.7999878-0.1600342c-4.0299683,0-5.1599731,2.8300171-7.0299683,7.5500488
			C11.710022,19.25,11.3099976,20.2600098,10.8499756,21.3299561c-1.9299927,4.5-1.9099731,5.2600098-1.8599854,7.1100464
			C9.0100098,29.4099731,9.0499878,30.75,8.75,33.2099609c-0.5499878,4.4800415-0.1099854,5.4800415,0.5,6.8699951
			c0.3200073,0.7400513,0.6900024,1.5900269,0.9799805,3.1900024c0.5400391,3.1300049,0.8400269,3.6900024,1.5100098,4.9500122
			c0.3099976,0.5900269,0.6900024,1.3200073,1.2200317,2.5400391c0.9199829,2.1300049,0.6300049,3.3899536,0.289978,4.8599854
			c-0.2700195,1.1599731-0.5499878,2.3599854-0.3099976,4.1599731c0.1699829,1.2000122,0.6699829,2.0200195,1.4099731,2.2999878
			c0.1700439,0.0600586,0.3400269,0.0900269,0.5200195,0.0900269c0.4100342,0,0.8300171-0.1699829,1.1900024-0.4799805
			c0.9099731-0.7900391,1.6500244-2.6400146,1.0200195-5.5c-1.1100464-5,0.0700073-6.25,1.2000122-7.460022
			c0.1599731-0.1699829,0.3099976-0.3300171,0.4599609-0.5c0.9100342-1.0700073,0.8800049-1.7799683,0.8300171-2.960022
			c-0.0200195-0.4699707-0.0499878-1.1099854-0.0100098-1.9400024c0.0900269-1.6099854,0.6699829-2.8699951,1.5499878-3.3599854
			c0.2700195-0.1499634,0.5499878-0.2299805,0.8500366-0.2299805c0.3699951,0,0.7699585,0.1199951,1.1799927,0.3399658
			c0.9199829,0.5,0.8200073,2.1800537,0.7199707,3.8200073c-0.0999756,1.7200317-0.1199951,2.8900146,0.4899902,3.4700317
			c0.2200317,0.2099609,0.5200195,0.3099976,0.8800049,0.3099976c0.0800171,0,0.1600342,0,0.2600098-0.0100098
			c0.6300049-0.0800171,1.0900269-0.3499756,1.3599854-0.7799683c0.7400513-1.1700439,0.0200195-3.3300171-0.6199951-5.2400513
			c-0.2199707-0.6799927-0.4400024-1.3200073-0.5599976-1.8399658c-0.1699829-0.75-0.0599976-0.8800049,0.0200195-0.9199829
			c0.25,0,0.7399902,0.2699585,1.2199707,0.5299683c0.5400391,0.289978,1.1500244,0.6199951,1.7800293,0.8200073
			c0.25,0.0700073,0.4699707,0.1099854,0.6599731,0.1099854c0.2600098,0,0.4700317-0.0700073,0.6400146-0.2199707
			c0.5100098-0.4700317,0.3599854-1.2700195,0.2700195-1.7399902l-0.0300293-0.1300049
			c-0.0799561-0.5300293-0.1900024-1.0500488-0.3099976-1.5800171l-0.0700073-0.3300171
			c-0.2299805-1.0299683-0.4299927-2.1199951-0.0499878-3.0599976c0.2800293-0.6799927,0.9100342-1.25,1.8699951-1.6900024
			l0.6700439-0.289978c1.3299561-0.5800171,1.6699829-0.7700195,3.0899658-2.6300049
			c0.789978-1.039978,2.460022-1.8800049,4.2399902-2.7800293c2.6000366-1.2999878,5.2800293-2.6499634,5.2999878-4.8200073
			C44.9899902,18.8499756,42.5800171,17.9400024,40.2299805,17.0599976z"/>
		<path class="st50" d="M44.8699951,20.3499756C44.039978,19.25,42.3499756,18.6199951,40.7000122,18
			c-1.4800415-0.5599976-3.0200195-1.1400146-3.9800415-2.0499878C33.3599854,12.75,30.3099976,12.5799561,26.4400024,12.3599854
			c-1.5100098-0.0800171-3.210022-0.1699829-5.0599976-0.4899902c-0.6600342-0.1099854-1.2399902-0.1600342-1.7999878-0.1600342
			c-4.0300293,0-5.1600342,2.8300171-7.0300293,7.5500488c-0.3699951,0.9299927-0.7699585,1.9400024-1.2299805,3.0099487
			c-1.9299927,4.5-1.9100342,5.2600098-1.8599854,7.1100464c0.0199585,0.9699707,0.0599976,2.3099976-0.2400513,4.7699585
			c-0.5499878,4.4800415-0.1099854,5.4800415,0.5,6.8699951c0.3200073,0.7400513,0.6900024,1.5900269,0.9800415,3.1900024
			c0.3699951,2.1300049,0.6199951,3.0700073,0.9599609,3.8600464c-0.6099854-1.1600342-0.9099731-1.8000488-1.4299927-4.8000488
			C9.9400024,41.6699829,9.5700073,40.8200073,9.25,40.0799561c-0.6099854-1.3899536-1.0499878-2.3899536-0.5-6.8699951
			C9.0499878,30.75,9.0100098,29.4099731,8.9899902,28.4400024c-0.0499878-1.8500366-0.0700073-2.6100464,1.8599854-7.1100464
			c0.460022-1.0699463,0.8600464-2.0799561,1.2300415-3.0099487c1.8699951-4.7200317,3-7.5500488,7.0299683-7.5500488
			c0.5599976,0,1.1400146,0.0500488,1.7999878,0.1600342c1.8500366,0.3200073,3.5500488,0.4099731,5.0599976,0.4899902
			c3.8700562,0.2200317,6.9200439,0.3900146,10.2800293,3.5900269c0.960022,0.9099731,2.5,1.4899902,3.9799805,2.0499878
			C42.3099976,17.8399658,44.4299927,18.6400146,44.8699951,20.3499756z"/>
		<path class="st51" d="M37.9000244,22.2399902c0,0.25-0.0900269,0.4799805-0.2600098,0.6599731
			c-0.1799927,0.1900024-0.4100342,0.2900391-0.6700439,0.2900391c-0.2399902,0-0.4699707-0.0900269-0.6399536-0.2600098
			c-0.1700439-0.1600342-0.3400269-0.2999878-0.5100098-0.4400024c-0.789978-0.6400146-1.6699829-1.0800171-2.6199951-1.3099976
			c-0.3200073-0.0800171-0.6400146-0.1300049-0.9299927-0.1500244c-0.1100464-0.0100098-0.2200317-0.0199585-0.3099976-0.0199585
			l-0.2800293,0.0099487c-0.4699707,0-0.8699951-0.3699951-0.9099731-0.8399658
			c-0.0300293-0.2399902,0.0499878-0.4799805,0.1999512-0.6699829c0.1600342-0.1900024,0.3800049-0.3099976,0.6100464-0.3300171
			l0.1199951-0.0100098c0.0800171-0.0100098,0.1599731-0.0100098,0.2399902-0.0100098
			c0.5299683,0,1.1199951,0.0800171,1.7000122,0.2200317c1.2099609,0.289978,2.3299561,0.8499756,3.3399658,1.6599731
			c0.2200317,0.1699829,0.4299927,0.3599854,0.6300049,0.5499878C37.789978,21.7600098,37.8900146,21.9899902,37.9000244,22.2399902
			z"/>
		<path class="st52" d="M37.9000244,22.2399902c0,0.25-0.0900269,0.4799805-0.2600098,0.6599731
			c-0.1799927,0.1900024-0.4100342,0.2900391-0.6700439,0.2900391c-0.2399902,0-0.4699707-0.0900269-0.6399536-0.2600098
			c-0.1700439-0.1600342-0.3400269-0.2999878-0.5100098-0.4400024c-0.789978-0.6400146-1.6699829-1.0800171-2.6199951-1.3099976
			c-0.3200073-0.0800171-0.6400146-0.1300049-0.9299927-0.1500244c-0.1100464-0.0100098-0.2200317-0.0199585-0.3099976-0.0199585
			l-0.2800293,0.0099487c-0.4699707,0-0.8699951-0.3699951-0.9099731-0.8399658
			c-0.0100098-0.0800171-0.0100098-0.1600342,0-0.2399902c0.1199951,0.3599854,0.4699707,0.6199951,0.8599854,0.6199951
			l0.2799683-0.0100098c0.0900269,0,0.2000122,0.0100098,0.3099976,0.0200195
			c0.2900391,0.0199585,0.6100464,0.0700073,0.9300537,0.1499634c0.9499512,0.2300415,1.8299561,0.6700439,2.6199951,1.3099976
			c0.1699829,0.1400146,0.3399658,0.2800293,0.5100098,0.4400024c0.1699829,0.1700439,0.3999634,0.2600098,0.6399536,0.2600098
			c0.2600098,0,0.4899902-0.0999756,0.6700439-0.289978c0.1399536-0.1400146,0.2199707-0.3200073,0.2399902-0.5200195
			C37.8699951,22.0199585,37.9000244,22.1300049,37.9000244,22.2399902z"/>
		<path class="st53" d="M24.0300293,17.3099976c-0.1100464,1.2999878-0.9700317,2.6599731-2.2300415,3.539978
			c-0.8399658,0.6000366-1.8499756,0.9299927-2.8499756,0.9299927c-0.2999878,0-0.6000366-0.0299683-0.8900146-0.0899658
			C17.0999756,21.5,16.3099976,21,15.8800049,20.3200073c-0.8699951-1.3800049-0.0200195-3.1900024,2.2199707-4.7000122
			C19.1900024,14.8800049,20.2800293,14.7199707,21,14.7199707c1.0499878,0,2.0100098,0.3400269,2.5499878,0.8900146
			C23.9299927,16,24.0999756,16.5999756,24.0300293,17.3099976z"/>
		<path class="st54" d="M24.0300293,17.3099976c-0.1100464,1.2999878-0.9700317,2.6599731-2.2300415,3.539978
			c-0.8399658,0.6000366-1.8499756,0.9299927-2.8499756,0.9299927c-0.2999878,0-0.6000366-0.0299683-0.8900146-0.0899658
			C17.0999756,21.5,16.3099976,21,15.8800049,20.3200073c-0.1300049-0.2000122-0.2200317-0.4100342-0.2700195-0.6300049
			c0.4400024,0.5,1.1099854,0.8599854,1.9000244,1.0199585c0.289978,0.0599976,0.5899658,0.0900269,0.8900146,0.0900269
			c1,0,2.0099487-0.3300171,2.8499756-0.9299927c1.2600098-0.8800049,2.1199951-2.2399902,2.2299805-3.5400391
			c0.0300293-0.289978,0.0200195-0.5699463-0.039978-0.8199463c0.039978,0.0299683,0.0800171,0.0699463,0.1099854,0.0999756
			C23.9299927,16,24.0999756,16.5999756,24.0300293,17.3099976z"/>
		<path class="st51" d="M18.4299927,26.3699951c0.0900269,0.5-0.25,0.9799805-0.75,1.0700073
			C16.7700195,27.6099854,16,27.9699707,15.3699951,28.5299683c-0.2700195,0.2399902-0.5100098,0.5100098-0.7000122,0.7999878
			C14.6199951,29.4199829,14.5700073,29.5,14.5100098,29.6199951l-0.0400391,0.0800171
			C14.3099976,30,13.9899902,30.1900024,13.6500244,30.1900024c-0.1300049,0-0.25-0.0300293-0.3600464-0.0800171
			c-0.2299805-0.0900269-0.4099731-0.2700195-0.5-0.5c-0.0899658-0.2299805-0.0899658-0.4799805,0.0100098-0.710022
			c0.0200195-0.039978,0.0499878-0.1099854,0.0900269-0.1900024c0.0700073-0.1300049,0.1499634-0.2599487,0.2399902-0.3999634
			C13.4099731,27.8900146,13.75,27.5,14.1400146,27.1499634c0.8800049-0.789978,1.9599609-1.2999878,3.2099609-1.5299683
			c0.0500488-0.0100098,0.1100464-0.0100098,0.1700439-0.0100098c0.1900024,0,0.3599854,0.0499878,0.5199585,0.1599731
			C18.2399902,25.9099731,18.3800049,26.1199951,18.4299927,26.3699951z"/>
		<path class="st52" d="M18.4299927,26.3699951c0.0900269,0.5-0.25,0.9799805-0.75,1.0700073
			C16.7700195,27.6099854,16,27.9699707,15.3699951,28.5299683c-0.2700195,0.2399902-0.5100098,0.5100098-0.7000122,0.7999878
			C14.6199951,29.4199829,14.5700073,29.5,14.5100098,29.6199951l-0.0400391,0.0800171
			C14.3099976,30,13.9899902,30.1900024,13.6500244,30.1900024c-0.1300049,0-0.25-0.0300293-0.3600464-0.0800171
			C13.1799927,30.0599976,13.0700073,30,12.9899902,29.9099731c0.1000366,0.0499878,0.210022,0.0700073,0.3300171,0.0700073
			c0.3399658,0,0.6599731-0.1900024,0.8200073-0.4899902l0.039978-0.0800171
			c0.0599976-0.1199951,0.1099854-0.2000122,0.1600342-0.289978c0.1900024-0.2900391,0.4299927-0.5599976,0.6999512-0.7999878
			c0.6300049-0.5599976,1.4000244-0.9200439,2.3099976-1.0900269c0.5-0.0899658,0.8400269-0.5700073,0.75-1.0700073
			c-0.039978-0.1900024-0.1300049-0.3499756-0.25-0.4799805c0.0700073,0.0100098,0.1300049,0.0499878,0.1900024,0.0899658
			C18.2399902,25.9099731,18.3800049,26.1199951,18.4299927,26.3699951z"/>
		<path class="st51" d="M27.1799927,33.2099609c-0.460022,0.6700439-1.0499878,1.2600098-1.75,1.7600098
			c-0.6300049,0.4400024-1.3200073,0.8099976-2.0499878,1.0800171c-0.25,0.0900269-0.4700317,0.1599731-0.6799927,0.2199707
			c-0.1300049,0.0300293-0.2300415,0.0599976-0.2900391,0.0700073c-0.0699463,0.0100098-0.1299438,0.0200195-0.1900024,0.0200195
			c-0.1799927,0-0.3499756-0.0599976-0.5099487-0.1599731c-0.2000122-0.1400146-0.3400269-0.3500366-0.3900146-0.5900269
			c-0.0499878-0.25,0-0.4899902,0.1400146-0.7000122c0.1399536-0.2099609,0.3499756-0.3399658,0.6199951-0.3999634
			l0.1399536-0.0300293c0.1500244-0.039978,0.3200073-0.0999756,0.5200195-0.1699829
			c0.5800171-0.2200317,1.1199951-0.5,1.6099854-0.8500366c0.5300293-0.3800049,0.9700317-0.8199463,1.3200073-1.3099976
			c0.1400146-0.1999512,0.3500366-0.3399658,0.5900269-0.3800049c0.0599976-0.0099487,0.1099854-0.0099487,0.1599731-0.0099487
			c0.1900024,0,0.3800049,0.0499878,0.5300293,0.1599731C27.3699951,32.2199707,27.4699707,32.7999878,27.1799927,33.2099609z"/>
		<path class="st52" d="M27.1799927,33.2099609c-0.460022,0.6700439-1.0499878,1.2600098-1.75,1.7600098
			c-0.6300049,0.4400024-1.3200073,0.8099976-2.0499878,1.0800171c-0.25,0.0900269-0.4700317,0.1599731-0.6799927,0.2199707
			c-0.1300049,0.0300293-0.2300415,0.0599976-0.2900391,0.0700073c-0.0699463,0.0100098-0.1299438,0.0200195-0.1900024,0.0200195
			c-0.1799927,0-0.3499756-0.0599976-0.5099487-0.1599731c-0.1600342-0.1100464-0.2800293-0.2700195-0.3500366-0.4500122
			c0.1600342,0.0999756,0.3300171,0.1599731,0.5100098,0.1599731c0.0599976,0,0.1199951-0.0100098,0.1900024-0.0199585
			c0.0599976-0.0100098,0.1599731-0.0400391,0.289978-0.0700073c0.210022-0.0599976,0.4300537-0.1300049,0.6800537-0.2200317
			c0.7299805-0.2700195,1.4199829-0.6400146,2.0499878-1.0800171c0.7000122-0.5,1.289978-1.0899658,1.75-1.7599487
			c0.1799927-0.25,0.2099609-0.5700073,0.0999756-0.8500366c0.0100098,0,0.0100098,0.0100098,0.0200195,0.0100098
			C27.3699951,32.2199707,27.4699707,32.7999878,27.1799927,33.2099609z"/>
		<path class="st53" d="M18.3800049,37.2199707c-0.0499878,1.3400269-0.8099976,2.9100342-1.7600098,3.6700439
			c-0.789978,0.6299438-1.8399658,1-2.8200073,1c-0.7600098,0-1.3900146-0.2300415-1.7099609-0.6300049
			c-0.8099976-1-0.3800049-2.5400391,1.1599731-4.1300049c1.1599731-1.2000122,2.5499878-1.9400024,3.6099854-1.9400024
			c0.4200439,0,0.75,0.1099854,0.9899902,0.3399658C18.2299805,35.8900146,18.4199829,36.4699707,18.3800049,37.2199707z"/>
		<path class="st54" d="M18.3800049,37.2199707c-0.0499878,1.3400269-0.8099976,2.9100342-1.7600098,3.6700439
			c-0.789978,0.6299438-1.8399658,1-2.8200073,1c-0.7600098,0-1.3900146-0.2300415-1.7099609-0.6300049
			c-0.1500244-0.1800537-0.25-0.3800049-0.3099976-0.5900269c0.3399658,0.2299805,0.8399658,0.3599854,1.4099731,0.3599854
			c0.9799805,0,2.0299683-0.3699951,2.8200073-1c0.9500122-0.7600098,1.7099609-2.3299561,1.7600098-3.6699829
			c0.0199585-0.3699951-0.0200195-0.6900024-0.1100464-0.9699707c0.0700073,0.039978,0.1300049,0.0899658,0.1900024,0.1399536
			C18.2299805,35.8900146,18.4199829,36.4699707,18.3800049,37.2199707z"/>
		<path class="st55" d="M29.2199707,28.7399902C29.0200195,28.9599609,28.7999878,29.0599976,28.5,29.0599976
			c-0.0100098,0-0.0100098,0-0.0200195,0c-0.3200073-0.0300293-0.6999512-0.2800293-1.0599976-0.6900024l-0.6199951-0.6900024
			l-0.5100098,0.7799683c-0.1399536,0.2200317-0.3099976,0.3600464-0.5099487,0.4300537
			c-0.0800171,0.0299683-0.1700439,0.039978-0.2700195,0.039978c-0.3400269,0-0.7299805-0.1600342-1.1500244-0.4899902
			c-0.3099976-0.2399902-0.4799805-0.5100098-0.5199585-0.8300171C23.7399902,26.7999878,24.5,25.8499756,25,25.2299805
			c0.1400146-0.1699829,0.210022-0.2700195,0.2999878-0.3800049c0.4100342-0.5499878,1.0900269-1.4599609,1.9700317-1.4599609
			c0.3800049,0,0.7999878,0.1699829,1.2600098,0.5c0.1999512,0.1499634,0.3099976,0.3099976,0.3299561,0.4799805
			C28.9099731,24.7699585,28.5,25.25,28.1900024,25.6099854l-0.7399902,0.8800049l0.9299927,0.3599854
			c0.2399902,0.0900269,1.0499878,0.4400024,1.2000122,0.9700317C29.6599731,28.0999756,29.539978,28.4099731,29.2199707,28.7399902
			z"/>
		<path class="st56" d="M29.2199707,28.7399902C29.0200195,28.9599609,28.7999878,29.0599976,28.5,29.0599976
			c-0.0100098,0-0.0100098,0-0.0200195,0c-0.0499878,0-0.0999756-0.0100098-0.1499634-0.0300293
			c0.1099854-0.0499878,0.2099609-0.1300049,0.2999878-0.2299805c0.3200073-0.3300171,0.4400024-0.6400146,0.3599854-0.9199829
			C28.8400269,27.3499756,28.0300293,27,27.789978,26.9099731l-0.9299927-0.3599854l0.7399902-0.8800049
			c0.3099976-0.3599854,0.7200317-0.8400269,0.6700439-1.2399902c-0.0200195-0.1699829-0.1300049-0.3300171-0.3300171-0.4799805
			C27.539978,23.6699829,27.1799927,23.5,26.8400269,23.4699707c0.1399536-0.0499878,0.2799683-0.0799561,0.4299927-0.0799561
			c0.3800049,0,0.7999878,0.1699829,1.2600098,0.5c0.1999512,0.1499634,0.3099976,0.3099976,0.3299561,0.4799805
			C28.9099731,24.7699585,28.5,25.25,28.1900024,25.6099854l-0.7399902,0.8800049l0.9299927,0.3599854
			c0.2399902,0.0900269,1.0499878,0.4400024,1.2000122,0.9700317C29.6599731,28.0999756,29.539978,28.4099731,29.2199707,28.7399902
			z"/>
		<path class="st32" d="M44.9699707,21.0799561c-0.0199585,2.1700439-2.6999512,3.5200195-5.2999878,4.8200073
			c-1.7799683,0.9000244-3.4500122,1.7400513-4.2399902,2.7800293c-1.4199829,1.8599854-1.7600098,2.0499878-3.0899658,2.6300049
			l-0.6700439,0.289978c-0.9599609,0.4400024-1.5899658,1.0100098-1.8699951,1.6900024
			c-0.3800049,0.9400024-0.1799927,2.0300293,0.0499878,3.0599976l0.0700073,0.3300171
			c0.1199951,0.5299683,0.2300415,1.0499878,0.3099976,1.5800171l0.0300293,0.1300049
			c0.0899658,0.4699707,0.2399902,1.2699585-0.2700195,1.7399902c-0.1699829,0.1499634-0.3800049,0.2199707-0.6400146,0.2199707
			c-0.1900024,0-0.4099731-0.039978-0.6599731-0.1099854c-0.6300049-0.2000122-1.2399902-0.5300293-1.7800293-0.8200073
			c-0.4799805-0.2600098-0.9699707-0.5299683-1.2199707-0.5299683c-0.0800171,0.039978-0.1900024,0.1699829-0.0200195,0.9199829
			c0.1199951,0.5199585,0.3400269,1.1599731,0.5599976,1.8399658c0.6400146,1.9100342,1.3600464,4.0700073,0.6199951,5.2400513
			c-0.2699585,0.4299927-0.7299805,0.6999512-1.3599854,0.7799683c-0.0999756,0.0100098-0.1799927,0.0100098-0.2600098,0.0100098
			c-0.3599854,0-0.6599731-0.1000366-0.8800049-0.3099976c-0.6099854-0.5800171-0.5899658-1.75-0.4899902-3.4700317
			c0.1000366-1.6399536,0.2000122-3.3200073-0.7199707-3.8200073c-0.4100342-0.2199707-0.8099976-0.3399658-1.1799927-0.3399658
			c-0.3000488,0-0.5800171,0.0800171-0.8500366,0.2299805c-0.8800049,0.4899902-1.4599609,1.75-1.5499878,3.3599854
			c-0.039978,0.8300171-0.0100098,1.4700317,0.0100098,1.9400024c0.0499878,1.1800537,0.0800171,1.8900146-0.8300171,2.960022
			c-0.1499634,0.1699829-0.2999878,0.3300171-0.4599609,0.5c-1.1300049,1.210022-2.3100586,2.460022-1.2000122,7.460022
			c0.6300049,2.8599854-0.1100464,4.7099609-1.0200195,5.5C15.7000122,62,15.2800293,62.1699829,14.8699951,62.1699829
			c-0.1799927,0-0.3499756-0.0299683-0.5200195-0.0900269c-0.5499878-0.2099609-0.9699707-0.7199707-1.2199707-1.4699707
			c0.5700073,0.4500122,1.1799927,0.7399902,1.5700073,0.5300293c0.0499878-0.0300293,0.1099854,0.0299683,0.1699829,0.0299683
			c0.210022,0,0.4100342-0.1300049,0.539978-0.2399902c0.6500244-0.5700073,1.2300415-2.0900269,0.6900024-4.5200195
			c-1.1300049-5.1099854-0.0599976-6.75,1.4500122-8.3699951c0.1500244-0.1499634,0.2900391-0.2999878,0.4199829-0.460022
			c0.6600342-0.7699585,0.6500244-1.1399536,0.6000366-2.2599487c-0.0200195-0.460022-0.0499878-1.1600342-0.0100098-2.0400391
			c0.1099854-1.9799805,0.8599854-3.5100098,2.0599976-4.1900024c0.4199829-0.2299805,0.8699951-0.3499756,1.3400269-0.3499756
			c0.539978,0,1.0999756,0.1599731,1.6599731,0.460022C25.0999756,40,24.9699707,42.0999756,24.8599854,43.9599609
			c-0.0499878,0.8900146-0.1400146,2.3800049,0.1799927,2.6800537c0.0400391,0.039978,0.1500244,0.039978,0.1900024,0.039978
			c0.0400391,0,0.0900269,0,0.1400146-0.0100098c0.4700317-0.0599976,0.5900269-0.2399902,0.6400146-0.3200073
			c0.4799805-0.7600098-0.25-2.9400024-0.7399902-4.4199829c-0.2300415-0.6900024-0.4400024-1.3300171-0.5700073-1.8900146
			c-0.1099854-0.4500122-0.3800049-1.6499634,0.6099854-2.0700073l0.1799927-0.0799561h0.2000122
			c0.4799805,0,0.960022,0.25,1.7000122,0.6499634c0.5,0.2700195,1.0599976,0.5800171,1.5999756,0.7399902
			c0.210022,0.0700073,0.3200073,0.0700073,0.3200073,0.1199951c0.0300293-0.0299683,0.0900269-0.1699829-0.039978-0.8399658
			L29.25,38.4099731c-0.0800171-0.5100098-0.2000122-1.0100098-0.3099976-1.5100098l-0.0700073-0.3299561
			c-0.25-1.1400146-0.4799805-2.460022,0.0100098-3.6500244c0.3699951-0.9400024,1.1799927-1.6799927,2.3800049-2.2299805
			l0.6799927-0.2999878c1.1699829-0.5100098,1.3800049-0.6000366,2.6900024-2.3200073
			c0.9299927-1.2200317,2.710022-2.1100464,4.5899658-3.0599976c2.3300171-1.1700439,3.9400024-2.6100464,4.75-3.9400024
			c0.2800293-0.460022,0.4800415-0.9500122,0.5900269-1.4500122C44.8200073,20.039978,44.9799805,20.5199585,44.9699707,21.0799561z
			"/>
	</g>
</g>
<g id="Layer_7">
</g>
<g id="Layer_8">
</g>
<g id="Layer_9">
</g>
<g id="Layer_10">
</g>
<g id="Layer_11">
</g>
<g id="Layer_12">
</g>
<g id="Layer_13">
</g>
<g id="Layer_14">
</g>
<g id="Layer_15">
</g>
<g id="Layer_16">
</g>
<g id="Layer_17">
</g>
<g id="Layer_18">
</g>
<g id="Layer_19">
</g>
<g id="Layer_20">
</g>
<g id="Layer_21">
</g>
<g id="Layer_22">
</g>
<g id="Layer_23">
</g>
<g id="Layer_24">
</g>
<g id="Layer_25">
</g>
<g id="Layer_26">
</g>
<g id="Layer_27">
</g>
</svg>
